<svg xmlns="http://www.w3.org/2000/svg" xmlns:xlink="http://www.w3.org/1999/xlink" width="23" height="15" version="1.1" viewBox="0 0 23 15"><title>俄罗斯</title><desc>Created with Sketch.</desc><g id="Page-1" fill="none" fill-rule="evenodd" stroke="none" stroke-width="1"><g id="首页TRON" fill-rule="nonzero" transform="translate(-617.000000, -1657.000000)"><g id="底部导航" transform="translate(0.000000, 1497.000000)"><g id="Group-33-Copy" transform="translate(30.000000, 47.000000)"><g id="Group-25-Copy"><g id="Group-35" transform="translate(0.000000, 3.000000)"><g id="俄罗斯" transform="translate(587.000000, 110.000000)"><path id="Shape" fill="#353636" d="M0.105803001,14.9079785 L22.8963275,14.9079785 L22.8963275,0.110419922 L0.105803001,0.110419922 L0.105803001,14.9079785 Z M22.9765466,14.9895654 L22.9765466,14.8895654 L22.9765466,14.9895654 Z M0.0115375082,15 L0.0115375082,0 L22.990593,0 L22.990593,14.9816016 L0.0115375082,14.9816016 L0.0115375082,15 Z"/><polygon id="Path" fill="#E51F1F" points=".049 9.975 22.934 9.975 22.934 14.945 .049 14.945"/><polygon id="Path" fill="#232B8C" points=".049 5.025 22.934 5.025 22.934 9.994 .049 9.994"/><polygon id="Path" fill="#FFF" points=".049 .055 22.934 .055 22.934 5.025 .049 5.025"/></g></g></g></g></g></g></g></svg>